#N canvas 855 83 1440 852 10;
#X obj 139 67 gemwin;
#X msg 62 -94 create;
#X msg 101 -66 destroy;
#X msg 214 -12 1;
#X msg 263 -18 0;
#X obj 552 -255 adc~;
#X floatatom 901 104 5 0 0 0 - - -;
#X floatatom 686 -79 5 0 0 0 - - -;
#X obj 418 243 gemhead;
#X obj 418 510 translateXYZ;
#X floatatom 441 436 5 0 0 0 - - -;
#X floatatom 464 458 5 0 0 0 - - -;
#X floatatom 487 479 5 0 0 0 - - -;
#X obj 745 519 translateXYZ;
#X floatatom 773 480 5 0 0 0 - - -;
#X floatatom 814 479 5 0 0 0 - - -;
#X floatatom 859 477 5 0 0 0 - - -;
#X obj 807 448 * -1;
#X obj 934 466 translateXYZ;
#X floatatom 956 417 5 0 0 0 - - -;
#X floatatom 996 426 5 0 0 0 - - -;
#X floatatom 1043 422 5 0 0 0 - - -;
#X msg 249 -164 color 0 0 0;
#X floatatom 463 543 5 0 0 0 - - -;
#X obj 418 578 triangle;
#X obj 745 549 triangle;
#X obj 938 517 triangle;
#X obj 591 508 translateXYZ;
#X floatatom 614 459 5 0 0 0 - - -;
#X floatatom 655 466 5 0 0 0 - - -;
#X floatatom 660 486 5 0 0 0 - - -;
#X obj 591 575 triangle;
#X obj 655 441 * -1;
#X obj 565 -219 *~;
#X floatatom 588 -254 5 0 0 0 - - -;
#X obj 626 -144 autoscale;
#X floatatom 626 -112 5 0 0 0 - - -;
#X obj 626 -56 * 1;
#X obj 626 -174 env~ 1500;
#X obj 626 -91 - 0.8;
#X obj 591 540 rotateXYZ 0 0 180;
#X obj 431 317 rotateXYZ;
#X obj 413 352 separator;
#X obj 585 385 separator;
#X obj 741 388 separator;
#X obj 905 378 separator;
#X floatatom 485 243 5 0 0 0 - - -;
#X obj 423 287 translateXYZ;
#X obj 1210 240 gemhead;
#X obj 1210 507 translateXYZ;
#X floatatom 1233 433 5 0 0 0 - - -;
#X floatatom 1256 455 5 0 0 0 - - -;
#X floatatom 1279 476 5 0 0 0 - - -;
#X obj 1537 516 translateXYZ;
#X floatatom 1565 477 5 0 0 0 - - -;
#X floatatom 1606 476 5 0 0 0 - - -;
#X floatatom 1651 474 5 0 0 0 - - -;
#X obj 1599 445 * -1;
#X obj 1726 463 translateXYZ;
#X floatatom 1748 414 5 0 0 0 - - -;
#X floatatom 1788 423 5 0 0 0 - - -;
#X floatatom 1835 419 5 0 0 0 - - -;
#X floatatom 1255 540 5 0 0 0 - - -;
#X obj 1210 575 triangle;
#X obj 1537 546 triangle;
#X obj 1730 514 triangle;
#X obj 1383 505 translateXYZ;
#X floatatom 1406 456 5 0 0 0 - - -;
#X floatatom 1447 463 5 0 0 0 - - -;
#X floatatom 1452 483 5 0 0 0 - - -;
#X obj 1383 572 triangle;
#X obj 1447 438 * -1;
#X msg 1432 174 draw line;
#X obj 1383 537 rotateXYZ 0 0 180;
#X obj 1223 314 rotateXYZ;
#X obj 1205 349 separator;
#X obj 1377 382 separator;
#X obj 1533 385 separator;
#X obj 1697 375 separator;
#X floatatom 1277 240 5 0 0 0 - - -;
#X obj 1215 284 scaleXYZ;
#X floatatom 1258 194 5 0 0 0 - - -;
#X msg 1217 127;
#X floatatom 1211 157 5 0 0 0 - - -;
#X obj 629 -14 pack f f;
#X obj 629 9 line;
#X floatatom 674 -37 5 0 0 0 - - -;
#X obj 240 450 gemhead;
#X obj 297 479 scaleXYZ;
#X floatatom 319 430 5 0 0 0 - - -;
#X msg 266 365 draw line;
#X obj 484 -108 env~ 1500;
#X obj 484 -85 autoscale;
#X floatatom 484 -63 5 0 0 0 - - -;
#X floatatom 558 -159 5 0 0 0 - - -;
#X obj 484 -132 hip~ 200;
#X floatatom 329 47 5 0 0 0 - - -;
#X obj 484 -43 - 0.8;
#X obj 250 506 circle;
#X floatatom 438 69 5 0 0 0 - - -;
#X msg 159 -46 dimen 1024 768;
#X msg 684 -122 loadbang;
#X msg 684 -100 4;
#X obj 587 -300 loadbang;
#X msg 588 -277 1;
#X msg 612 186 draw fill;
#X obj 314 78 * 13;
#X obj 421 100 * 176;
#X obj 606 146 loadbang;
#X obj 1426 110 loadbang;
#X connect 1 0 0 0;
#X connect 2 0 0 0;
#X connect 3 0 0 0;
#X connect 4 0 0 0;
#X connect 5 0 33 0;
#X connect 6 0 10 0;
#X connect 6 0 17 0;
#X connect 6 0 20 0;
#X connect 6 0 32 0;
#X connect 6 0 50 0;
#X connect 6 0 71 0;
#X connect 6 0 57 0;
#X connect 6 0 60 0;
#X connect 7 0 37 1;
#X connect 8 0 47 0;
#X connect 9 0 24 0;
#X connect 10 0 9 1;
#X connect 11 0 9 2;
#X connect 12 0 9 3;
#X connect 13 0 25 0;
#X connect 14 0 13 1;
#X connect 15 0 13 2;
#X connect 16 0 13 3;
#X connect 17 0 14 0;
#X connect 18 0 26 0;
#X connect 19 0 18 1;
#X connect 20 0 18 2;
#X connect 21 0 18 3;
#X connect 22 0 0 0;
#X connect 23 0 24 1;
#X connect 27 0 40 0;
#X connect 28 0 27 1;
#X connect 29 0 27 2;
#X connect 30 0 27 3;
#X connect 32 0 29 0;
#X connect 33 0 38 0;
#X connect 33 0 95 0;
#X connect 34 0 33 1;
#X connect 35 0 36 0;
#X connect 36 0 39 0;
#X connect 37 0 84 0;
#X connect 38 0 35 0;
#X connect 39 0 37 0;
#X connect 40 0 31 0;
#X connect 41 0 42 0;
#X connect 41 0 43 0;
#X connect 41 0 44 0;
#X connect 41 0 45 0;
#X connect 42 0 9 0;
#X connect 43 0 27 0;
#X connect 44 0 13 0;
#X connect 45 0 18 0;
#X connect 46 0 41 3;
#X connect 47 0 41 0;
#X connect 48 0 80 0;
#X connect 49 0 63 0;
#X connect 50 0 49 1;
#X connect 51 0 49 2;
#X connect 52 0 49 3;
#X connect 53 0 64 0;
#X connect 54 0 53 1;
#X connect 55 0 53 2;
#X connect 56 0 53 3;
#X connect 57 0 54 0;
#X connect 58 0 65 0;
#X connect 59 0 58 1;
#X connect 60 0 58 2;
#X connect 61 0 58 3;
#X connect 62 0 63 1;
#X connect 66 0 73 0;
#X connect 67 0 66 1;
#X connect 68 0 66 2;
#X connect 69 0 66 3;
#X connect 71 0 68 0;
#X connect 72 0 70 0;
#X connect 72 0 63 0;
#X connect 72 0 64 0;
#X connect 72 0 65 0;
#X connect 73 0 70 0;
#X connect 74 0 75 0;
#X connect 74 0 76 0;
#X connect 74 0 77 0;
#X connect 74 0 78 0;
#X connect 75 0 49 0;
#X connect 76 0 66 0;
#X connect 77 0 53 0;
#X connect 78 0 58 0;
#X connect 79 0 74 3;
#X connect 80 0 74 0;
#X connect 81 0 80 3;
#X connect 83 0 80 1;
#X connect 83 0 80 2;
#X connect 84 0 85 0;
#X connect 85 0 6 0;
#X connect 86 0 84 1;
#X connect 87 0 88 0;
#X connect 88 0 98 0;
#X connect 89 0 88 1;
#X connect 89 0 88 2;
#X connect 90 0 98 0;
#X connect 91 0 92 0;
#X connect 92 0 93 0;
#X connect 93 0 97 0;
#X connect 94 0 95 1;
#X connect 95 0 91 0;
#X connect 96 0 106 1;
#X connect 97 0 106 0;
#X connect 97 0 107 0;
#X connect 99 0 107 1;
#X connect 100 0 0 0;
#X connect 101 0 102 0;
#X connect 102 0 7 0;
#X connect 103 0 104 0;
#X connect 104 0 34 0;
#X connect 105 0 31 0;
#X connect 105 0 24 0;
#X connect 105 0 25 0;
#X connect 105 0 26 0;
#X connect 106 0 89 0;
#X connect 107 0 46 0;
#X connect 108 0 105 0;
#X connect 109 0 72 0;
